<svg version="1.1" id="Слой_1" xmlns="http://www.w3.org/2000/svg" x="0" y="0" viewBox="0 0 828 194" xml:space="preserve"><path d="M63.6 125c.3-1.1.5-2.7.8-4.7.2-2.1.4-4.5.6-7.2.2-2.7.3-5.7.4-8.8s.2-6.4.2-9.7c0-1.2 0-2.3-.1-3.4 0-1.1-.1-2.3-.1-3.4-2.6-.7-4.9-1.6-6.9-2.6s-3.7-2.2-5-3.5c-1-1-1.7-2-2.2-3.1-.5-1.1-.8-2.2-.8-3.1 0-1.4.4-2.3 1.3-2.9.9-.6 1.9-.7 3.1-.4.2 1.8 1.2 3.5 2.9 5.3 1.7 1.7 4.2 3.2 7.4 4.4-.5-7-1.4-12.9-2.5-17.9-1.2-5-2.6-9-4.3-11.9.3-1.9 1.4-2.9 3.1-2.9 1.1 0 2 .4 2.7 1.3.7.9 1.5 2.5 2.3 4.8 2.3 6.7 3.8 16 4.4 28 1.8.3 3.8.6 5.9.8 2.1.2 4.4.3 6.7.3 8.1 0 15.4-1 21.9-2.9 6.5-1.9 12.1-4.5 16.7-7.8s8.1-7.1 10.6-11.4c2.4-4.4 3.7-8.9 3.7-13.8 0-3.9-1.2-7.8-3.6-11.5-2.4-3.7-5.9-7.1-10.5-9.9-4.6-2.9-10.3-5.2-17.1-6.9-6.8-1.7-14.5-2.6-23.3-2.6-8.5 0-16.6.8-24.2 2.5-7.6 1.7-14.3 3.9-20 6.6-5.7 2.8-10.3 5.9-13.7 9.5-3.4 3.6-5 7.3-5 11.1 0 1.8.5 3.5 1.5 4.9 1 1.5 2.3 2.7 4.1 3.8 1.7 1.1 3.8 1.9 6.1 2.5 2.3.6 4.8.9 7.4.9 2.6 0 4.8-.3 6.5-.8 1 .3 1.4.9 1.4 1.7 0 1.2-1 2.2-2.9 2.9-1.9.7-4.3 1-7.2 1-3.1 0-6.1-.4-8.9-1.1-2.8-.7-5.3-1.8-7.4-3.2-2.1-1.4-3.8-3.1-5.1-5.1-1.3-2-1.9-4.2-1.9-6.7 0-4.6 1.8-9 5.5-13.2 3.6-4.2 8.6-8 15-11.4 6.4-3.3 13.8-6 22.4-8 8.6-2 17.8-3 27.6-3 10.1 0 18.8 1.1 26.3 3.2s13.7 4.8 18.6 8.2c4.9 3.4 8.6 7.2 11 11.4 2.4 4.2 3.6 8.5 3.6 12.8 0 5.8-1.5 11.3-4.4 16.4-2.9 5.1-7 9.5-12.3 13.2-5.3 3.7-11.5 6.6-18.8 8.8-7.3 2.1-15.3 3.2-24 3.2-2.2 0-4.3-.1-6.3-.2s-3.9-.3-5.8-.6c.1.5.1 1.1.1 1.6v1.6c0 2.4 0 5-.1 7.7s-.2 5.3-.3 7.9c-.1 2.6-.3 5-.5 7.4-.2 2.3-.4 4.4-.6 6.1-.3 1.9-.7 3.2-1.3 4-.6.8-1.4 1.2-2.3 1.2-.4 0-.8-.1-1.3-.3-.5-.4-.8-.7-1.1-1.1zm125.9-33.7c-.7 3-1.7 5.6-3 7.8-1.2 2.2-2.6 4.1-4.1 5.6-1.5 1.5-3.1 2.7-4.8 3.5-1.7.8-3.4 1.4-5.2 1.6-1.4 3.6-3.3 6.4-5.9 8.3-2.5 1.9-5.4 2.9-8.4 2.9-4 0-7.3-1.7-9.8-4.9-2.6-3.3-3.8-8.2-3.8-14.6 0-2.9.4-5.9 1.1-8.9.7-3 1.9-5.7 3.4-8 .3-3.1 1.2-5.5 2.9-7.4 1.6-1.9 3.9-2.9 6.7-2.9 2.4 0 4.6.6 6.6 1.9 1.9 1.3 3.6 3 4.9 5.3 1.4 2.2 2.4 4.8 3.1 7.8.7 3 1.1 6.2 1.1 9.6 0 2-.1 3.8-.4 5.4 1.4-.3 2.7-.7 3.9-1.4 1.3-.7 2.4-1.6 3.6-2.9 1.1-1.3 2.2-2.9 3.2-4.9 1-2 2-4.5 3-7.4 1.8-.2 2.5 1.1 1.9 3.6zm-30 23.5c1.6 0 3-.4 4.4-1.3 1.4-.8 2.5-2.1 3.5-3.7-1.9-.3-3.8-1-5.6-2-1.8-1-3.5-2.2-5-3.7s-2.9-3.2-4-5c-1.2-1.9-2.1-3.9-2.8-6-.3 1.1-.5 2.2-.6 3.3-.1 1.1-.2 2.2-.2 3.4 0 4.9 1 8.6 3 11.2 2 2.5 4.4 3.8 7.3 3.8zm-6.3-29.3c0 2.2.5 4.3 1.4 6.5 1 2.1 2.2 4.1 3.7 5.8 1.5 1.7 3.2 3.2 5.1 4.4 1.9 1.2 3.9 1.9 5.9 2.2.3-1.2.4-2.6.4-4.4 0-2.9-.3-5.6-1-8.1-.6-2.5-1.5-4.6-2.6-6.3-1.1-1.7-2.3-3.1-3.8-4.1-1.4-1-2.9-1.5-4.5-1.5-1.7 0-3 .6-3.8 1.7.5.2.8.6 1.1 1.2-.6.7-1.3 1.6-1.9 2.6z"/><path d="M191.7 91.8c-.2.3-.5.7-.8 1.3-.3.6-.7 1.2-1 2-.3.7-.7 1.5-1 2.3-.3.8-.6 1.5-.8 2.1-.5 2.2-.8 4.5-.9 7-.1 2.5.4 4.6 1.5 6.4 1.1.7 2.2.6 3.2-.3 1.1-.8 2.1-2.1 3-3.7 1-1.6 1.9-3.5 2.8-5.5s1.8-3.9 2.6-5.6c.8-1.6 1.8-3.6 2.8-5.8 1.1-2.2 2.1-4.5 3.3-6.7 1.1-2.2 2.2-4.3 3.4-6.3s2.1-3.4 2.9-4.4c.4-.5.8-.8 1.3-.9.5-.1.9-.1 1.3.2.4.2.7.5.9 1 .2.5.2 1.1-.1 1.9-.1.3-.1.5-.2.7-.1.2-.1.4-.2.6h.2c-.1.1-.2.2-.2.3-.7 3-1.1 6-1.4 9.1-.2 3.1-.3 6-.3 8.7 0 2.7.2 5.2.5 7.3.3 2.2.5 3.8.8 4.9.1.5.3.8.4.9.1.1.3-.2.5-.9.1-.5.6-1.7 1.4-3.6.8-1.8 1.8-4 2.9-6.4 1.1-2.4 2.4-4.9 3.7-7.5 1.4-2.6 2.7-5 3.9-7.2 1.3-2.2 2.4-4 3.4-5.5 1-1.4 1.8-2.1 2.3-2.1.9 0 1.6.3 2.1.8-1.2 3.3-2 7.1-2.5 11.3-.5 4.2-.8 8.1-.8 11.6 0 4.4.5 7.5 1.5 9.5s2.3 3 3.8 3c.8 0 1.6-.4 2.5-1.1.8-.7 1.8-2.1 2.8-4 1-1.9 2.1-4.5 3.4-7.8 1.2-3.3 2.7-7.4 4.3-12.4 1.9 0 2.6 1.3 1.9 3.8-1.4 5.3-2.7 9.8-4 13.4-1.3 3.6-2.7 6.5-4 8.7-1.4 2.2-2.8 3.7-4.2 4.7-1.4 1-2.9 1.4-4.5 1.4-2.7 0-5-1.4-6.8-4.1-1.8-2.7-2.7-7.3-2.7-13.7 0-1 0-2 .1-3.1s.2-2.3.3-3.6c-1.6 3.3-3.1 6.6-4.5 9.7-1.4 3.1-2.4 5.7-3 7.6-.7 2.5-1.4 4.2-2.1 5.1-.7.9-1.6 1.3-2.5 1.3-1.2 0-2.2-.6-3.1-1.7-.9-1.2-1.6-3.1-2.2-5.7-.5-2.6-.8-5.8-.9-9.6 0-3.8.1-7.7.4-11.5l-3 6c-1 2-2 4-2.9 5.9-.8 1.8-1.7 3.7-2.7 5.7-1 2-2 3.9-3.2 5.6-1.1 1.7-2.3 3.1-3.7 4.3s-2.8 1.7-4.4 1.7c-1.9 0-3.4-.6-4.5-1.8s-1.9-2.7-2.4-4.5c-.5-1.8-.8-3.8-.8-6s.2-4.3.6-6.4c.2-1 .5-2.1.9-3.2s.8-2.1 1.4-3.1c.5-1 1.1-1.9 1.7-2.7.6-.8 1.2-1.4 1.8-1.8.5-.5 1.1-.7 1.8-.7.6 0 1.2.1 1.6.4.4.3.7.7.8 1.2.3.5.1 1-.4 1.5z"/><path d="M279.1 88.8c0 2.1-.2 3.6-.7 4.4-.4.9-1 1.3-1.8 1.5 0 2.7-.5 5.6-1.5 8.8.7 6.1 2.5 9.1 5.5 9.1 1 0 2-.4 3.1-1.2 1-.8 2.1-2.1 3.2-4s2.3-4.5 3.6-7.7c1.3-3.2 2.7-7.2 4.3-12.1 1.9 0 2.6 1.3 1.9 3.8-1.4 5.4-2.7 9.9-4 13.5-1.3 3.6-2.7 6.4-4 8.6-1.4 2.1-2.8 3.6-4.2 4.5-1.5.8-3 1.3-4.5 1.3-4.1 0-6.9-2.5-8.6-7.4-1.6 2.6-3.4 4.7-5.6 6.5-2.2 1.7-4.5 2.6-7 2.6-3.1 0-5.7-1.5-7.9-4.5s-3.2-7.4-3.2-13.3c0-3.7.5-7.3 1.5-10.8 1-3.5 2.4-6.7 4.2-9.4 1.8-2.8 3.8-5 6.2-6.6 2.4-1.7 4.9-2.5 7.6-2.5 2 0 3.8.4 5.3 1.2 1.5.8 2.7 1.9 3.7 3.2 1 1.4 1.7 3 2.2 4.8.5 1.6.7 3.6.7 5.7zm-4.5-.2c-.3-2.9-1.1-5.2-2.6-6.7-1.4-1.5-3.3-2.3-5.6-2.3-2 0-3.9.6-5.6 1.8-1.7 1.2-3.1 2.8-4.3 4.8-1.2 2-2.1 4.3-2.8 6.8-.7 2.6-1 5.2-1 8 0 4.3.7 7.6 2.1 9.9 1.4 2.3 3.1 3.5 5.2 3.5 1.8 0 3.6-.8 5.4-2.5 1.8-1.7 3.3-3.8 4.6-6.4-.1-.6-.1-1.3-.2-1.9 0-.7-.1-1.4-.1-2.1 0-4.1.5-7.4 1.4-9.8 1-2.6 2.2-3.6 3.5-3.1z"/><path d="M299.5 93.8c-.1.3-.1.7-.2 1h.4c1.2-.3 2.5-.5 4-.6 1.5-.1 3.1-.2 4.8-.2 1.7 0 3.3 0 4.7.1 1 .1 1.9.2 2.8.3.1-.9.3-1.7.4-2.5.3-1.7.6-3.3 1-4.9.4-1.6.8-2.9 1.2-4 .5-1.2 1.1-2.2 1.7-2.9.6-.7 1.4-1.1 2.3-1.1.9 0 1.6.3 2.1.8-1.2 3.3-2 6.7-2.5 10.1-.5 3.4-.8 6.9-.8 10.5 0 4.4.5 7.5 1.5 9.5s2.3 3 3.8 3c.8 0 1.6-.4 2.5-1.1.8-.7 1.8-2.1 2.8-4s2.1-4.5 3.4-7.8c1.2-3.3 2.7-7.4 4.3-12.4 1.9 0 2.5 1.3 1.9 3.8-1.4 5.3-2.7 9.8-4 13.4-1.3 3.6-2.7 6.5-4 8.7-1.4 2.2-2.8 3.7-4.2 4.7-1.4 1-2.9 1.4-4.5 1.4-2.7 0-5-1.4-6.8-4.1-1.8-2.7-2.7-7.3-2.7-13.7v-2.4h-1c-1.4-.1-3-.1-4.7-.1h-10.6c.1.5.1 1.2.1 1.8.1 3 .3 6 .6 8.9.3 3 .7 5.6 1.1 7.9.4 2.3.8 3.7 1.2 4.3-.1.4-.4.8-.9 1.1-.5.3-1.1.5-1.8.5s-1.4-.2-2.1-.7c-.6-.5-1.2-1.3-1.6-2.5-.5-1.4-.9-3.3-1.2-5.6-.3-2.3-.5-4.7-.7-7.2-.2-2.5-.2-5-.2-7.4 0-2.4.2-4.4.4-6.1.1-1.8.4-3.6.7-5.4.3-1.8.6-3.2 1-4.2.4-1.2.9-2.1 1.6-2.5.6-.5 1.3-.7 2.1-.7.7 0 1.4.2 1.8.5.5.3.8.7.9 1.1-.4.5-.8 1.8-1.3 3.9-.6 1.7-.9 4-1.3 6.8zM428 95.5c1.8-4.5 3.6-9.4 5.3-14.8 1.7-5.4 3.3-10.9 4.7-16.6 1.5-5.7 2.7-11.4 3.8-17 1.1-5.7 1.9-11.1 2.4-16.2-.7-13.9.4-20.9 3.5-20.9 1.3 0 2.2 1.3 2.7 4s.4 7.2-.3 13.6c.3 4.8.7 9.9 1.3 15.5.6 5.5 1.3 11.1 2.1 16.8.8 5.6 1.6 11.2 2.6 16.7s1.9 10.6 3 15.2c.8 3.5 1.7 6.7 2.6 9.6.9 2.9 1.9 5.4 2.9 7.4 1 2.1 2 3.7 3 4.8 1 1.2 2 1.7 3.1 1.7.9 0 1.7-.3 2.5-1s1.8-2 2.8-4c1.1-2 2.3-4.8 3.6-8.5 1.4-3.6 3-8.4 5-14.4 1.9 0 2.5 1.3 1.9 3.8-1.4 5.7-2.8 10.5-4.2 14.5-1.4 3.9-2.7 7.1-4.1 9.5-1.4 2.4-2.7 4.2-4.1 5.3-1.4 1.1-2.8 1.6-4.3 1.6s-3-.5-4.4-1.4c-1.4-1-2.8-2.6-4.2-4.9-1.4-2.3-2.7-5.4-4-9.2-1.3-3.8-2.6-8.5-3.8-14.2-.7-3.4-1.4-7.1-2.1-11.2-.7-4-1.4-8.2-2-12.3-.6-4.2-1.2-8.3-1.7-12.4s-.9-7.9-1.1-11.4c-.7 4.3-1.5 8.7-2.5 13.2s-2.1 9-3.3 13.3c-1.2 4.4-2.4 8.5-3.6 12.5-1.2 4-2.4 7.7-3.6 10.9-3 7.6-6.3 14.4-9.8 20.3-3.5 5.9-7.3 10.9-11.3 15-4 4.1-8.1 7.2-12.5 9.3-4.4 2.1-8.8 3.2-13.4 3.2-3.1 0-5.9-.6-8.5-1.9-2.6-1.3-4.9-3-6.8-5.3-1.9-2.3-3.5-5-4.5-8.2-1.1-3.2-1.6-6.7-1.6-10.6 0-5 .7-10.2 2.2-15.4 1.5-5.2 3.5-10.3 6-15.1 2.5-4.9 5.5-9.4 8.8-13.7 3.4-4.3 7-8 10.8-11.2 3.8-3.2 7.7-5.7 11.8-7.5 4-1.8 8-2.8 11.9-2.8s6.9 1.2 9 3.6c2.1 2.4 3.2 5.9 3.2 10.4 0 4.2-.9 8.5-2.6 12.8-1.7 4.3-4 8.2-6.8 11.6-2.8 3.5-5.9 6.3-9.4 8.5s-7 3.3-10.5 3.3c-3.1 0-5.5-.9-7.2-2.6-1.8-1.7-2.7-4.3-2.7-7.8 0-3.1.7-6.2 2-9.4 1.4-3.2 3.6-6.1 6.6-8.6 1.2-1 2.2-1.3 3.1-1.2.9.2 1.4.7 1.6 1.7-1.2.9-2.2 1.9-3.2 3.2-1 1.2-1.8 2.5-2.5 3.9s-1.3 2.8-1.7 4.1c-.4 1.4-.6 2.7-.6 3.9 0 2.4.5 4.1 1.6 5.2 1.1 1.1 2.6 1.6 4.6 1.6 2.5 0 5.1-.9 7.8-2.7 2.7-1.8 5-4 7.2-6.7 2.1-2.7 3.9-5.7 5.3-8.9s2-6.3 2-9.3c0-3.5-.7-6-2.2-7.7-1.5-1.6-3.5-2.4-6.1-2.4-3.1 0-6.3.8-9.6 2.4-3.4 1.6-6.7 3.9-10 6.7-3.3 2.9-6.5 6.2-9.5 10s-5.7 7.9-8 12.1c-2.3 4.3-4.1 8.7-5.5 13.4-1.4 4.6-2 9.1-2 13.6 0 3.5.4 6.6 1.3 9.2.9 2.6 2.1 4.8 3.7 6.5 1.6 1.7 3.5 3 5.6 3.8 2.1.8 4.4 1.3 6.8 1.3 4 0 7.9-1 11.6-3.1 3.7-2 7.2-4.9 10.6-8.5 3.4-3.6 6.6-7.9 9.6-13 2.9-5.1 5.8-10.6 8.3-16.5z"/><path d="M493.3 120.8c-1.6 0-3-.3-4.2-1-1.3-.7-2.3-1.8-3.2-3.2s-1.6-3.4-2.1-5.7c-.5-2.3-.8-5.2-.8-8.5 0-1.9.1-3.9.3-6.1.2-2.2.5-4.3.9-6.5.4-2.1.8-4.2 1.4-6.3.5-2 1.2-3.9 1.9-5.6.5-1.3 1.1-2.2 1.8-2.8.6-.5 1.4-.8 2.2-.8.7 0 1.4.2 1.9.5-1.7 3.8-2.9 8-3.6 12.4-.7 4.5-1.1 8.7-1.1 12.5 0 2.9.2 5.2.5 7 .3 1.8.8 3.3 1.4 4.3.6 1.1 1.2 1.8 1.9 2.2.7.4 1.4.7 2 .7 2.3 0 4.8-2.2 7.5-6.6 2.7-4.4 5.4-11.2 8.1-20.5.4-1.8 1.3-2.7 2.7-2.7.7 0 1.4.2 2 .5-.5 3.9-.3 8.1.7 12.4 1 4.3 2.3 8.9 3.8 13.7 1.5 4.8 2.9 9.9 4.2 15.2s2 11 2 16.9c0 5.2-.8 9.9-2.4 14.1-1.6 4.2-3.8 7.8-6.7 10.7-2.9 3-6.3 5.2-10.4 6.8-4 1.6-8.4 2.4-13.2 2.4-3.7 0-7.1-.6-10.3-1.7-3.2-1.2-5.9-2.7-8.3-4.5-2.3-1.9-4.2-4-5.5-6.3s-2-4.7-2-7.2c0-1.5.4-2.6 1.2-3.3.8-.7 1.8-.9 2.9-.5 0 2.2.6 4.4 1.8 6.6 1.2 2.1 2.9 4 4.9 5.7 2.1 1.7 4.5 3 7.2 4s5.6 1.5 8.7 1.5c8.2 0 14.7-2.3 19.4-7 4.7-4.7 7-11.3 7-19.9 0-4.6-.4-8.9-1.2-13-.8-4.1-1.7-8.1-2.8-11.8-1.1-3.8-2.1-7.4-3.1-11-1-3.6-1.8-7.1-2.2-10.7-2.1 7.3-4.7 12.9-7.9 16.9-2.9 4.2-6.1 6.2-9.3 6.2zM531 96.1c1-2 2-4.2 3-6.6 1-2.4 2.2-4.8 3.5-7.1 1.4-2.3 3-4.4 4.8-6.3 1.9-1.9 4.2-3.3 7-4.2 3.3-1 6.1-1.1 8.4-.1 2.3 1 4.1 2.4 5.3 4.4 1.2 2 1.8 4.3 1.8 6.8s-.7 4.8-2.1 6.8c-.6.9-1.4 1.7-2.3 2.5-.9.8-2 1.3-3.2 1.6s-2.6.3-4.1-.1c-1.5-.3-3.2-1.2-5-2.4-.7-.8-1.1-1.5-1.1-2s.2-1 .5-1.3c.3-.3.7-.5 1.2-.5s.9.1 1.2.3c.9.8 1.8 1.4 2.7 1.6.9.3 1.8.4 2.6.3s1.5-.3 2.2-.7c.6-.4 1.2-.9 1.6-1.5.8-1.3 1.2-2.7 1.2-4.2s-.4-2.8-1.2-4c-.8-1.2-1.9-2-3.4-2.5s-3.2-.5-5.3.1c-1.4.5-2.7 1.2-3.9 2.1-1.2.9-2.3 2.2-3.4 3.7-1.1 1.6-2.2 3.5-3.4 5.8-1.1 2.3-2.3 5-3.5 8.2 3.7.1 6.5.5 8.6 1.4 2.1.9 3.6 2 4.6 3.3 1 1.3 1.7 2.7 2 4.2.3 1.5.7 2.9 1 4.1.3 1.3.7 2.3 1.2 3.2.5.9 1.5 1.4 2.9 1.4 1.5.1 2.9-.2 4.3-.8 1.4-.6 2.8-1.9 4.2-3.8 1.4-1.9 2.9-4.7 4.5-8.2 1.6-3.5 3.3-8.2 5.3-14.1 1.9 0 2.5 1.3 1.9 3.8-1.4 5.6-2.9 10.3-4.4 14-1.5 3.7-3.1 6.7-4.7 8.9s-3.3 3.7-5 4.6c-1.7.8-3.5 1.3-5.4 1.3-2.8-.1-4.9-.6-6.2-1.6-1.4-1-2.4-2.2-3.1-3.6-.7-1.4-1.2-2.9-1.5-4.4-.3-1.5-.9-2.9-1.6-4-1-1.4-2.3-2.6-4-3.6-1.7-1.1-4-1.4-6.9-1.1-.5 1.6-.9 3.4-1.1 5.5-.3 2.1-.4 3.9-.4 5.6 0 1.6.2 3.2.5 4.9-.7.5-1.5.8-2.2.8-.9 0-1.6-.3-2.2-1-.6-.7-1-2.2-1.4-4.7-.3-1.6-.5-3.2-.7-4.7-.2-1.5-.4-3.1-.6-4.7-.2-1.6-.3-3.4-.4-5.3-.1-1.9-.1-4-.1-6.4-.1-1.8-.2-3.6-.1-5.4.1-1.8.2-3.3.4-4.3.2-1.3.6-2.2 1.2-2.8.6-.5 1.2-.9 2-1 1.5-.2 2.5.2 3 1.1-.3.6-.6 2-.7 4-.1 2.1-.2 4.5-.2 7.2 0 1 0 1.7-.1 1.9 0 .3-.1.5-.1.6v.7c.3.3.3 1.1.4 2.3zm45.2-62.2c0-1.2.3-2.2 1-3 .7-.8 1.6-1.2 2.9-1.2 1.5 0 2.8.8 4 2.4 1.2 1.6 1.8 3.9 1.8 6.8 0 2.6-.5 5.2-1.5 7.9s-2.4 4.9-4.2 6.8c-.9 1-1.8 1.4-2.7 1.3-.9-.1-1.4-.6-1.6-1.7 1.4-1.4 2.5-3.2 3.4-5.6.9-2.3 1.3-4.6 1.3-6.8 0-2-.4-3.6-1.2-4.7-.7-1.1-1.8-1.9-3.2-2.2zm46.1 65.9c0 4.4.5 7.5 1.6 9.5s2.4 3 3.9 3c.8 0 1.6-.4 2.5-1.1.8-.7 1.8-2.1 2.8-4 1-1.9 2.1-4.5 3.4-7.8 1.2-3.3 2.7-7.4 4.3-12.4 1.9 0 2.5 1.3 1.9 3.8-1.4 5.3-2.7 9.8-4 13.4-1.3 3.6-2.7 6.5-4 8.7-1.4 2.2-2.8 3.7-4.2 4.7-1.4 1-2.9 1.4-4.5 1.4-2.7 0-5-1.4-6.8-4.1s-2.7-7.3-2.7-13.7c0-.4.1-1 .2-1.8s.2-1.6.4-2.4c.1-.7.2-1.3.3-1.9-.5-.1-.9-.1-1.3-.1-.5 0-.9.1-.9.2-1.4 3.3-2.9 6.3-4.6 9.2-1.7 2.9-3.6 5.4-5.6 7.5-2 2.2-4.1 3.9-6.3 5.1-2.2 1.2-4.4 1.8-6.6 1.8-1.9 0-3.4-.6-4.5-1.8s-1.9-2.7-2.4-4.5-.8-3.8-.8-6 .2-4.3.6-6.3c.2-1 .5-2.1.9-3.2s.8-2.1 1.4-3.1c.5-1 1.1-1.9 1.7-2.7.6-.8 1.2-1.4 1.8-1.8.5-.5 1.1-.7 1.8-.7.6 0 1.2.1 1.6.4.4.3.7.7.8 1.2.1.5 0 1-.5 1.6-.2.3-.5.7-.8 1.3-.3.6-.7 1.2-1 2-.3.7-.7 1.5-1 2.3-.3.8-.6 1.5-.8 2.1-.5 2.2-.8 4.5-.9 7-.1 2.5.4 4.6 1.5 6.4 1.8.6 3.7.4 5.7-.7s3.8-2.6 5.6-4.6c1.8-2 3.4-4.2 4.8-6.6 1.4-2.4 2.5-4.6 3.3-6.6-2.9-.3-5.3-.9-7.2-1.7-2-.8-3.6-1.8-4.8-3.1-1.2-1.2-2.1-2.6-2.7-4.1-.5-1.5-.9-3.1-.9-4.8-.1-1.8.2-3.7.9-5.6.7-1.9 1.7-3.6 3.1-5.2 1.4-1.5 3-2.7 5-3.6 2-.9 4.3-1.2 7-1 1 .1 1.9.3 3 .7 1 .4 2 1 2.8 1.8.8.8 1.6 1.9 2.2 3.2.6 1.3 1 3 1 5 .1 2.7-.2 5.2-.7 7.5-.5 2.3-1.3 4.9-2.4 7.8h1.3c.2-.5.4-.9.6-1.3.5-.8 1.2-1.3 2.1-1.5.5-.1 1-.1 1.4 0 .5.1.9.2 1.2.4-.1.5-.2 1.2-.3 2.2-.1 1-.3 2-.5 3.2-.2 1.1-.3 2.2-.4 3.3-.2.7-.3 1.5-.3 2.1zm-7.6-24c-.1-2.2-.5-3.6-1.2-4.4-.7-.7-1.5-1.2-2.5-1.3-2-.2-3.7.1-5.2.9s-2.6 1.9-3.4 3.3c-.8 1.4-1.2 2.9-1.3 4.6-.1 1.7.2 3.4 1 4.9.7 1.6 1.9 3 3.5 4.2 1.6 1.2 3.7 2 6.3 2.3 1.2-3.1 1.9-5.7 2.3-7.9.4-1.9.6-4.2.5-6.6zm33.5 18c-.1.3-.1.7-.2 1h.4c1.2-.3 2.5-.5 4-.6 1.5-.1 3.1-.2 4.8-.2 1.7 0 3.3 0 4.7.1 1 .1 1.9.2 2.8.3.1-.9.3-1.7.4-2.5.3-1.7.6-3.3 1-4.9.4-1.6.8-2.9 1.2-4 .5-1.2 1.1-2.2 1.7-2.9.6-.7 1.4-1.1 2.3-1.1.9 0 1.6.3 2.1.8-1.2 3.3-2 6.7-2.5 10.1-.5 3.4-.8 6.9-.8 10.5 0 4.4.5 7.5 1.5 9.5s2.3 3 3.8 3c.8 0 1.6-.4 2.5-1.1.8-.7 1.8-2.1 2.8-4 1-1.9 2.1-4.5 3.4-7.8 1.2-3.3 2.7-7.4 4.3-12.4 1.9 0 2.5 1.3 1.9 3.8-1.4 5.3-2.7 9.8-4 13.4-1.3 3.6-2.7 6.5-4 8.7-1.4 2.2-2.8 3.7-4.2 4.7-1.4 1-2.9 1.4-4.5 1.4-2.7 0-5-1.4-6.8-4.1-1.8-2.7-2.7-7.3-2.7-13.7v-2.4h-1c-1.4-.1-3-.1-4.7-.1h-10.6c.1.5.1 1.2.1 1.8.1 3 .3 6 .6 8.9.3 3 .7 5.6 1.1 7.9.4 2.3.8 3.7 1.2 4.3-.1.4-.4.8-.9 1.1-.5.3-1.1.5-1.8.5s-1.4-.2-2.1-.7c-.6-.5-1.2-1.3-1.6-2.5-.5-1.4-.9-3.3-1.2-5.6-.3-2.3-.5-4.7-.7-7.2-.2-2.5-.2-5-.2-7.4 0-2.4.2-4.4.4-6.1.1-1.8.4-3.6.7-5.4.3-1.8.6-3.2 1-4.2.4-1.2.9-2.1 1.6-2.5.6-.5 1.3-.7 2.1-.7.7 0 1.4.2 1.8.5.5.3.8.7.9 1.1-.4.5-.8 1.8-1.3 3.9-.6 1.7-1 4-1.3 6.8z"/><path d="M723.3 87.5c1.9 0 2.5 1.3 1.9 3.8-1.3 5.1-2.9 9.5-4.8 13.3-1.9 3.7-4 6.8-6.3 9.3-2.3 2.4-4.6 4.3-7.1 5.5-2.4 1.2-4.8 1.8-7 1.8-4.2 0-7.6-1.6-10.2-4.9-2.6-3.3-3.9-8.2-3.9-14.8 0-3.9.5-7.6 1.5-11 1-3.4 2.3-6.2 3.8-8.6 1.6-2.4 3.4-4.2 5.4-5.6 2-1.4 4.1-2 6.3-2 1.5 0 2.8.3 3.8.9 1 .6 1.9 1.4 2.5 2.3.7 1 1.2 2.1 1.5 3.5.3 1.3.5 2.7.5 4.2 0 2.4-.4 4.7-1.2 6.7-.8 2-1.8 3.8-3.1 5.3s-2.7 2.7-4.3 3.5c-1.6.8-3.2 1.2-4.8 1.2-1.4 0-2.7-.3-4.1-.8-1.4-.5-2.5-1.2-3.2-2.2v.8c0 5 1 8.8 2.9 11.4 1.9 2.6 4.4 3.9 7.4 3.9 1.7 0 3.5-.5 5.5-1.4 1.9-.9 3.9-2.4 5.9-4.6 2-2.1 3.9-5 5.8-8.5 1.8-3.5 3.6-7.8 5.3-13zm-21.8-8c-1 0-2 .4-3.1 1.1-1 .7-2 1.7-2.9 2.9-.9 1.2-1.8 2.7-2.5 4.3-.7 1.6-1.3 3.4-1.7 5.2.5 1.2 1.3 2.2 2.4 2.9 1.1.7 2.4 1 3.7 1 1 0 1.9-.2 2.9-.7 1-.4 1.8-1.1 2.6-2 .8-.9 1.4-2 1.9-3.4.5-1.3.8-2.9.8-4.6 0-1.8-.3-3.3-1-4.6-.7-1.4-1.7-2.1-3.1-2.1z"/><path d="M753 119.4c-2.4 0-4.2-1-5.5-3-1.3-2-2.3-4.4-3-7.3-1.7 3.3-3.6 6.1-5.7 8.3-2.1 2.2-4.2 3.3-6.5 3.3-2.9 0-5.4-1.7-7.3-5-2-3.3-3-8.5-3-15.4 0-2.2.1-4.5.3-6.8.2-2.3.5-4.5.9-6.6s.8-4.1 1.3-6c.5-1.9 1.1-3.5 1.7-4.9 1-2.4 2.3-3.7 3.9-3.7.7 0 1.4.2 1.9.5-.5 1.2-1.1 2.7-1.6 4.5-.5 1.9-1 3.9-1.4 6.2-.4 2.3-.7 4.6-1 7.1-.2 2.4-.4 4.8-.4 7.1 0 2.9.2 5.4.6 7.4.4 2 .8 3.7 1.4 5 .5 1.3 1.2 2.2 1.9 2.9.7.6 1.4.9 2.2.9 1.4 0 2.9-.9 4.5-2.8 1.6-1.8 3.3-4.8 5-8.9-.1-.3-.1-.7-.1-1v-3c0-2.4.2-4.7.7-7 .4-2.3 1-4.3 1.7-6.1.7-1.8 1.4-3.2 2.2-4.3.8-1.1 1.6-1.6 2.3-1.6 1.3 0 1.9 1 1.9 3.1 0 2-.4 4.6-1.1 8-.7 3.3-1.7 6.8-3 10.3.1 4.1.8 7.3 2 9.5s2.6 3.3 4.2 3.3c1.1 0 2.3-.3 3.8-.9l.8-.4-1.9-6c-1.2-3.3-1.3-6.2-.5-8.7.8-2.5 3.1-3.9 6.8-4.2 1-.1 1.9.1 2.7.4.8.3 1.4.7 2 1.1.5.4 1 .9 1.3 1.4.3.5.5 1 .6 1.4.6 3.1.4 5.9-.6 8.6-1 2.7-2.4 5-4.2 7l-.2.2c0 .1-.1.1-.2.2l1.5 4c.7 2.1 1.2 4.2 1.4 6.2.2 2 .2 3.9-.1 5.6-.1 3.4-.9 6.5-2.3 9.4-1.4 2.9-3.3 5.4-5.7 7.5-2.4 2.1-5.2 3.7-8.4 4.8-3.2 1.1-6.7 1.5-10.5 1.2-3.5-.3-6.3-1.3-8.4-3-2.1-1.6-3.6-3.5-4.5-5.5-.9-2-1.1-4.1-.8-6.1.3-2 1.3-3.6 2.9-4.7 1.5-1.4 3.2-2.3 5-2.9 1.9-.6 3.7-.8 5.5-.7 1.8.1 3.5.7 5 1.6 1.6.9 2.8 2.2 3.7 3.7.6 1.4.8 2.4.7 3.1-.2.7-.5 1.2-1 1.6-.5.3-1.1.5-1.8.6-.7 0-1.2 0-1.6-.2.1-1.5-.1-2.8-.7-3.8s-1.5-1.8-2.5-2.2c-1.1-.4-2.3-.5-3.7-.2-1.4.3-2.8 1-4.2 2-1 .9-1.5 2-1.7 3.3s0 2.6.6 3.9c.6 1.3 1.6 2.4 3.1 3.4 1.4 1 3.3 1.5 5.6 1.5 3.4.1 6.4-.4 9-1.7 2.6-1.3 4.7-2.9 6.5-4.9 1.7-2 3-4.2 3.9-6.5.9-2.3 1.3-4.5 1.3-6.4.1-2.4-.2-4.9-.9-7.4-.2-.8-.4-1.5-.6-2.1s-.4-1.4-.6-2c-.6.5-1.2 1-1.8 1.2-1.9 1-3.7 1.6-5.3 1.6zm12.5-14.3c.6-1.8.6-3.8 0-6-.5-1-1.2-1.4-2-1.4-.9 0-1.6.4-2 1.1-.7.5-.9 1.3-.8 2.5.2 1.2.5 2.7 1.1 4.4.2.5.4 1.1.6 1.7.2.6.4 1.3.7 1.9 1.1-1 1.9-2.4 2.4-4.2z"/><path d="M779.3 74.2c-.1 1.1-.3 2.7-.7 4.7-.4 2.1-.8 4.4-1.3 6.9-.4 2.5-.8 5.2-1.2 7.9-.3 2.8-.5 5.4-.4 7.9.1 2.5.4 4.7 1.1 6.7.6 2 1.7 3.5 3.2 4.5 1.8 1.2 4 1.8 6.5 1.8s4.7-.7 6.5-2.1c1-.7 1.8-1.8 2.4-3 .6-1.3 1.1-2.7 1.5-4.2-1.9.6-3.7.9-5.5 1-1.8 0-3.4-.3-4.8-.9-1.4-.6-2.6-1.8-3.6-3.4-1-1.7-1.4-3.4-1.4-5.3.1-1.9.8-3.6 2.1-5.2 1.4-1.6 3.6-2.5 6.8-3 3.2-.1 5.8.6 7.7 2.3 1.9 1.7 3.3 3.8 4 6.4 1.6-1.2 3.1-2.6 4.5-4.3 1.4-1.7 2.7-3.6 3.7-5.8.3-.2.6-.1.9.4.3.5.6 1.1.8 1.8s.3 1.4.3 2.2c0 .7-.3 1.3-.8 1.5-1.2 2-2.5 3.7-4 5.3-1.5 1.5-3.1 2.9-4.8 4-.1 2.9-.8 5.6-2.1 8.4-1.3 2.7-3.4 4.9-6.2 6.5-2 1.2-4.3 2.1-6.7 2.5-2.4.4-4.7.4-7 0-2.2-.4-4.3-1.4-6.1-2.8-1.8-1.4-3.2-3.4-4.1-5.8-.9-2.4-1.2-5-1-7.9l.6-8.7c.1-1.6.3-3.2.5-4.9.2-1.7.4-3.3.6-4.9.2-1.6.5-3 .8-4.2.3-1.3.5-2.3.8-3 .5-1.2 1.1-2.2 1.7-2.9.6-.7 1.4-1.1 2.3-1.1 1.2-.1 1.9.1 2.4.7zm12.3 18.3c-2.4.7-3.9 1.8-4.4 3.5-.5 1.6-.2 3 1 4.2.8.8 2.1 1.2 3.8 1.2 1.7 0 3.5-.5 5.5-1.4-.1-2-.7-3.7-1.6-5.1-1-1.4-2.4-2.2-4.3-2.4z"/></svg>